{
	"asset":{
		"generator":"Khronos glTF Blender I/O v3.5.30",
		"version":"2.0"
	},
	"scene":0,
	"scenes":[
		{
			"name":"Scene",
			"nodes":[
				0,
				1
			]
		}
	],
	"nodes":[
		{
			"mesh":0,
			"name":"Television_01"
		},
		{
			"mesh":1,
			"name":"Screen"
		}
	],
	"materials":[
		{
			"doubleSided":true,
			"name":"Television_01",
			"normalTexture":{
				"index":0
			},
			"pbrMetallicRoughness":{
				"baseColorTexture":{
					"index":1
				},
				"metallicRoughnessTexture":{
					"index":2
				}
			}
		}
	],
	"meshes":[
		{
			"name":"Cube.021",
			"primitives":[
				{
					"attributes":{
						"COLOR_0":0,
						"POSITION":1,
						"TEXCOORD_0":2,
						"NORMAL":3
					},
					"indices":4,
					"material":0
				}
			]
		},
		{
			"name":"Cube.001",
			"primitives":[
				{
					"attributes":{
						"COLOR_0":5,
						"POSITION":6,
						"TEXCOORD_0":7,
						"NORMAL":8
					},
					"indices":9,
					"material":0
				}
			]
		}
	],
	"textures":[
		{
			"sampler":0,
			"source":0
		},
		{
			"sampler":0,
			"source":1
		},
		{
			"sampler":0,
			"source":2
		}
	],
	"images":[
		{
			"mimeType":"image/jpeg",
			"name":"Television_01_nor_gl_4k",
			"uri":"Television_01_nor_gl_4k.jpg"
		},
		{
			"mimeType":"image/jpeg",
			"name":"Television_01_diff_4k",
			"uri":"Television_01_diff_4k.jpg"
		},
		{
			"mimeType":"image/jpeg",
			"name":"Television_01_arm_4k",
			"uri":"Television_01_arm_4k.jpg"
		}
	],
	"accessors":[
		{
			"bufferView":0,
			"componentType":5123,
			"count":1897,
			"normalized":true,
			"type":"VEC4"
		},
		{
			"bufferView":1,
			"componentType":5126,
			"count":1897,
			"max":[
				0.29999998211860657,
				0.4568334221839905,
				0.21244415640830994
			],
			"min":[
				-0.29999998211860657,
				-1.5506739146076143e-05,
				-0.25836652517318726
			],
			"type":"VEC3"
		},
		{
			"bufferView":2,
			"componentType":5126,
			"count":1897,
			"type":"VEC2"
		},
		{
			"bufferView":3,
			"componentType":5126,
			"count":1897,
			"type":"VEC3"
		},
		{
			"bufferView":4,
			"componentType":5123,
			"count":5268,
			"type":"SCALAR"
		},
		{
			"bufferView":5,
			"componentType":5123,
			"count":100,
			"normalized":true,
			"type":"VEC4"
		},
		{
			"bufferView":6,
			"componentType":5126,
			"count":100,
			"max":[
				0.12633192539215088,
				0.40423285961151123,
				0.19235940277576447
			],
			"min":[
				-0.25713521242141724,
				0.11414705216884613,
				0.1682196855545044
			],
			"type":"VEC3"
		},
		{
			"bufferView":7,
			"componentType":5126,
			"count":100,
			"type":"VEC2"
		},
		{
			"bufferView":8,
			"componentType":5126,
			"count":100,
			"type":"VEC3"
		},
		{
			"bufferView":9,
			"componentType":5123,
			"count":486,
			"type":"SCALAR"
		}
	],
	"bufferViews":[
		{
			"buffer":0,
			"byteLength":15176,
			"byteOffset":0,
			"target":34962
		},
		{
			"buffer":0,
			"byteLength":22764,
			"byteOffset":15176,
			"target":34962
		},
		{
			"buffer":0,
			"byteLength":15176,
			"byteOffset":37940,
			"target":34962
		},
		{
			"buffer":0,
			"byteLength":22764,
			"byteOffset":53116,
			"target":34962
		},
		{
			"buffer":0,
			"byteLength":10536,
			"byteOffset":75880,
			"target":34963
		},
		{
			"buffer":0,
			"byteLength":800,
			"byteOffset":86416,
			"target":34962
		},
		{
			"buffer":0,
			"byteLength":1200,
			"byteOffset":87216,
			"target":34962
		},
		{
			"buffer":0,
			"byteLength":800,
			"byteOffset":88416,
			"target":34962
		},
		{
			"buffer":0,
			"byteLength":1200,
			"byteOffset":89216,
			"target":34962
		},
		{
			"buffer":0,
			"byteLength":972,
			"byteOffset":90416,
			"target":34963
		}
	],
	"samplers":[
		{
			"magFilter":9729,
			"minFilter":9987
		}
	],
	"buffers":[
		{
			"byteLength":91388,
			"uri":"television_edit.bin"
		}
	]
}
